<svg width="31" height="25" viewBox="0 0 31 25" fill="none" xmlns="http://www.w3.org/2000/svg">
<path d="M26.2832 9.12773L25.1075 14.2621C24.5053 16.5532 23.559 18.099 20.8635 18.1818H13.5799C10.8844 18.099 9.90939 16.5532 9.33588 14.2621L8.16018 9.12773C7.47196 6.06369 9.79469 4.54547 12.0314 4.54547H22.4407C24.6774 4.54547 26.9714 6.06369 26.2832 9.12773Z" stroke="black" stroke-width="2" stroke-miterlimit="10" stroke-linecap="round" stroke-linejoin="round"/>
<path d="M4.59277 4.54547H7.11371L8.03722 9.09093" stroke="black" stroke-width="2" stroke-miterlimit="10" stroke-linecap="round" stroke-linejoin="round"/>
<path d="M21.8149 25C23.0831 25 24.1111 23.9824 24.1111 22.7273C24.1111 21.4721 23.0831 20.4545 21.8149 20.4545C20.5466 20.4545 19.5186 21.4721 19.5186 22.7273C19.5186 23.9824 20.5466 25 21.8149 25Z" fill="black"/>
<path d="M12.6298 25C13.898 25 14.9261 23.9824 14.9261 22.7273C14.9261 21.4721 13.898 20.4545 12.6298 20.4545C11.3616 20.4545 10.3335 21.4721 10.3335 22.7273C10.3335 23.9824 11.3616 25 12.6298 25Z" fill="black"/>
</svg>
