<svg width="26" height="34" viewBox="0 0 26 34" fill="none" xmlns="http://www.w3.org/2000/svg">
<path d="M8 11.5C8 13.9855 10.2384 16 13 16C15.7616 16 18 13.9855 18 11.5C18 9.01453 15.7616 7 13 7C10.2384 7 8 9.01453 8 11.5Z" stroke="black" stroke-width="2" stroke-miterlimit="10" stroke-linecap="round" stroke-linejoin="round"/>
<path d="M18 11.5C18 9.01453 15.7616 7 13 7C10.2384 7 8 9.01453 8 11.5C8 13.9855 10.2384 16 13 16C15.7616 16 18 13.9593 18 11.5Z" stroke="black" stroke-width="2" stroke-miterlimit="10" stroke-linecap="round" stroke-linejoin="round"/>
<path d="M6 25.5316C8.21858 26.4937 10.6667 27 13.2423 27C15.6138 27 17.9089 26.5443 20 25.7342C19.898 21.9873 16.7869 19 12.9872 19C9.26412 19 6.20401 21.8861 6 25.5316Z" stroke="black" stroke-width="2" stroke-miterlimit="10" stroke-linecap="round" stroke-linejoin="round"/>
<path d="M6 25.5316C8.21858 26.4937 10.6667 27 13.2423 27C15.6138 27 17.9089 26.5443 20 25.7342C19.898 21.9873 16.7869 19 12.9872 19C9.26412 19 6.20401 21.8861 6 25.5316Z" stroke="black" stroke-width="2" stroke-miterlimit="10" stroke-linecap="round" stroke-linejoin="round"/>
</svg>
